<svg width="270" height="45" viewBox="0 0 270 45" fill="none" xmlns="http://www.w3.org/2000/svg">
<path d="M26.4044 30.4795C26.7487 30.7708 26.9738 31.3534 27.0797 32.2273C27.2121 33.0748 27.1724 33.9619 26.9606 34.8888C26.8017 35.6568 26.5103 36.3984 26.0866 37.1134C25.6629 37.8019 25.1068 38.2124 24.4182 38.3448C24.1534 38.3978 23.5443 38.4243 22.5909 38.4243C21.6375 38.4508 20.512 38.4508 19.2143 38.4243C17.9432 38.4243 16.6455 38.411 15.3214 38.3846C14.0237 38.3846 12.8585 38.3846 11.8257 38.3846C10.8193 38.411 10.1043 38.4508 9.68055 38.5037C8.59476 38.6891 7.48248 38.7553 6.34372 38.7024C5.23145 38.6494 4.45021 38.4905 4 38.2257C4.18538 37.8549 4.34428 37.2988 4.47669 36.5572C4.6091 35.7892 4.71503 34.955 4.79448 34.0546C4.87393 33.1542 4.90041 32.2935 4.87393 31.4726L4.71503 7.00249C5.00634 6.94952 5.50952 6.93628 6.22455 6.96277C6.96607 6.98925 7.74731 7.10842 8.56828 7.32028C9.46869 7.53214 10.2764 7.92938 10.9914 8.51201C11.7065 9.09463 12.1434 9.83614 12.3023 10.7366C12.3553 11.0279 12.395 11.6105 12.4215 12.4844C12.448 13.3319 12.4612 14.3382 12.4612 15.5035C12.4877 16.6687 12.4877 17.8604 12.4612 19.0786C12.4612 20.2968 12.4612 21.4356 12.4612 22.4949C12.4612 23.5542 12.448 24.4149 12.4215 25.077C12.4215 25.739 12.4215 26.0701 12.4215 26.0701C12.395 27.0764 12.501 27.9901 12.7393 28.811C12.9777 29.6055 13.3219 30.2279 13.7721 30.6781C14.1164 31.0224 14.5401 31.2607 15.0433 31.3931C15.5465 31.5255 16.1688 31.6182 16.9103 31.6712C17.2281 31.6977 17.7181 31.6977 18.3801 31.6712C19.0687 31.6447 19.8234 31.605 20.6444 31.552C21.4654 31.4726 22.2731 31.3799 23.0676 31.2739C23.8886 31.168 24.6036 31.0488 25.2127 30.9164C25.8218 30.784 26.219 30.6384 26.4044 30.4795Z" fill="#030911"/>
<path d="M53.5791 10.5777C53.6321 11.1868 53.6983 12.1799 53.7778 13.557C53.8837 14.9076 53.9631 16.4701 54.0161 18.2444C54.0691 20.0188 54.0823 21.8461 54.0558 23.7264C54.0558 25.5801 53.9896 27.3412 53.8572 29.0097C53.7513 30.6781 53.5527 32.0684 53.2613 33.1807C52.7847 35.008 51.4605 36.4116 49.2889 37.3915C47.1173 38.3713 44.3896 38.8612 41.1058 38.8612C38.9077 38.8612 37.0407 38.4508 35.5047 37.6298C33.9687 36.8088 32.7769 35.6833 31.9295 34.2532C31.1085 32.7967 30.6451 31.1283 30.5391 29.248C30.4862 28.3211 30.4464 27.1426 30.42 25.7126C30.3935 24.256 30.367 22.6935 30.3405 21.0251C30.3405 19.3302 30.3405 17.6618 30.3405 16.0199C30.3405 14.3779 30.3405 12.8817 30.3405 11.531C30.367 10.1539 30.3802 9.0549 30.3802 8.23394C30.3802 7.41297 30.3802 7.00249 30.3802 7.00249C30.6716 6.94952 31.1747 6.93628 31.8898 6.96277C32.6313 6.98925 33.3993 7.10842 34.1938 7.32028C35.0942 7.53214 35.9151 7.88966 36.6567 8.39283C37.4247 8.89601 37.8616 9.62428 37.9676 10.5777C38.047 11.3721 38.047 12.5639 37.9676 14.1528C37.9146 15.7153 37.8616 17.5161 37.8087 19.5553C37.7822 21.568 37.8351 23.6601 37.9676 25.8317C37.994 26.2819 38.0073 26.7984 38.0073 27.381C38.0073 27.9636 38.0867 28.533 38.2456 29.0891C38.431 29.6452 38.7885 30.1087 39.3182 30.4795C39.8743 30.8502 40.7218 31.0356 41.8605 31.0356C42.9993 31.0356 43.86 30.8767 44.4426 30.5589C45.0517 30.2411 45.4887 29.8041 45.7535 29.248C46.0183 28.6919 46.1772 28.043 46.2302 27.3015C46.3096 26.56 46.3758 25.7655 46.4288 24.9181C46.4818 24.3619 46.495 23.541 46.4685 22.4552C46.4685 21.3694 46.4553 20.1512 46.4288 18.8006C46.4023 17.4499 46.3626 16.0861 46.3096 14.709C46.2567 13.3319 46.2037 12.0607 46.1507 10.8955C46.0978 9.73021 46.058 8.79008 46.0316 8.07504C46.0051 7.36001 45.9918 7.00249 45.9918 7.00249C46.2831 6.94952 46.7863 6.93628 47.5013 6.96277C48.2429 6.98925 49.0241 7.10842 49.8451 7.32028C50.7455 7.53214 51.5664 7.9029 52.308 8.43256C53.0495 8.93573 53.4732 9.65076 53.5791 10.5777Z" fill="#030911"/>
<path d="M99.3578 38.7024C98.219 38.4905 97.4113 37.7225 96.9346 36.3984C96.4844 35.0742 96.2593 33.4323 96.2593 31.4726C96.2593 31.2342 96.2461 30.6384 96.2196 29.685C96.2196 28.7316 96.2063 27.5531 96.1799 26.1495C96.1799 24.7195 96.1666 23.1835 96.1401 21.5415C96.1401 19.8996 96.1269 18.2577 96.1004 16.6157C96.0739 14.9738 96.0474 13.4643 96.021 12.0872C95.9945 10.6836 95.968 9.5316 95.9415 8.63119C95.915 7.73078 95.8885 7.18788 95.8621 7.0025C96.2593 6.92305 96.8684 6.90981 97.6894 6.96278C98.5368 6.98926 99.4108 7.12167 100.311 7.36002C101.238 7.57188 102.046 7.94264 102.734 8.47229C103.423 8.97547 103.82 9.67726 103.926 10.5777C103.979 11.0014 104.019 11.7297 104.045 12.7625C104.072 13.7688 104.085 14.9738 104.085 16.3774C104.111 17.7545 104.125 19.2243 104.125 20.7868C104.125 22.3493 104.125 23.8985 104.125 25.4345C104.125 26.944 104.125 28.3476 104.125 29.6453C104.125 30.9164 104.125 31.989 104.125 32.8629C104.151 33.7104 104.178 34.2268 104.204 34.4122C104.257 34.9683 104.363 35.3788 104.522 35.6436C104.681 35.8819 104.853 36.1865 105.038 36.5573C104.376 37.2723 103.555 37.8549 102.575 38.3051C101.596 38.7553 100.523 38.8877 99.3578 38.7024Z" fill="#030911"/>
<path d="M133.661 6.36691C133.979 6.63174 134.204 7.14816 134.337 7.91616C134.496 8.68416 134.562 9.51836 134.535 10.4188C134.509 11.2927 134.376 12.0872 134.138 12.8022C133.9 13.4908 133.556 13.9013 133.105 14.0337C132.92 14.0866 132.536 14.1661 131.953 14.272C131.397 14.3515 130.881 14.4574 130.404 14.5898C129.954 14.7222 129.358 14.9473 128.616 15.2651C127.875 15.5829 127.239 16.0464 126.71 16.6555C126.286 17.1586 125.942 17.6883 125.677 18.2444C125.412 18.7741 125.266 19.4626 125.24 20.3101C125.213 20.6544 125.2 21.3032 125.2 22.2566C125.2 23.1835 125.2 24.2693 125.2 25.5139C125.2 26.7322 125.2 27.9371 125.2 29.1288C125.227 30.3206 125.24 31.3402 125.24 32.1876C125.24 33.0351 125.24 33.5382 125.24 33.6971C125.213 34.4916 125.293 35.1669 125.478 35.7231C125.664 36.2792 125.862 36.6102 126.074 36.7162C125.412 37.2193 124.75 37.6431 124.088 37.9873C123.452 38.3316 122.539 38.5832 121.347 38.7421C120.897 38.7951 120.394 38.6626 119.837 38.3448C119.281 38.0535 118.791 37.5901 118.368 36.9545C117.97 36.2924 117.759 35.4847 117.732 34.5313C117.732 33.5779 117.719 32.3597 117.692 30.8767C117.692 29.3672 117.692 27.7385 117.692 25.9906C117.719 24.2163 117.719 22.4419 117.692 20.6676C117.666 19.8996 117.547 19.1713 117.335 18.4828C117.149 17.7942 116.832 17.1984 116.381 16.6952C115.931 16.1655 115.335 15.7286 114.594 15.3843C113.852 15.04 112.925 14.8149 111.813 14.709C111.522 14.6825 111.125 14.6031 110.621 14.4706C110.118 14.3382 109.774 14.2058 109.589 14.0734C109.297 13.8615 109.059 13.4643 108.874 12.8817C108.688 12.2726 108.543 11.6105 108.437 10.8955C108.331 10.1539 108.251 9.42567 108.198 8.71064C108.172 7.9956 108.172 7.41298 108.198 6.96278C108.304 6.98926 108.596 7.02898 109.072 7.08195C109.575 7.13491 110.171 7.18788 110.86 7.24084C111.548 7.26733 112.224 7.29381 112.886 7.32029C113.362 7.34678 113.998 7.37326 114.792 7.39974C115.613 7.42622 116.487 7.45271 117.414 7.47919C118.341 7.50567 119.215 7.53216 120.036 7.55864C120.857 7.55864 121.532 7.55864 122.062 7.55864C122.777 7.53216 123.611 7.50567 124.565 7.47919C125.518 7.45271 126.432 7.42622 127.306 7.39974C128.206 7.34678 128.921 7.29381 129.451 7.24084C129.98 7.18788 130.536 7.12167 131.119 7.04222C131.728 6.93629 132.258 6.83036 132.708 6.72443C133.185 6.59202 133.503 6.47284 133.661 6.36691Z" fill="#030911"/>
<path d="M161.673 14.5104C161.356 15.4902 160.866 16.2053 160.204 16.6555C159.542 17.1057 158.853 17.2911 158.138 17.2116C157.423 17.1057 156.814 16.7482 156.311 16.1391C156.761 15.7948 156.893 15.424 156.708 15.0268C156.549 14.6031 156.139 14.2588 155.477 13.9939C154.814 13.7026 153.967 13.5967 152.934 13.6762C151.875 13.7291 150.802 14.0734 149.717 14.709C148.657 15.3446 147.77 16.2582 147.055 17.4499C146.34 18.6417 145.943 20.1247 145.863 21.8991C145.784 23.7264 145.969 25.2094 146.419 26.3482C146.87 27.4869 147.426 28.3608 148.088 28.9699C148.776 29.5526 149.465 29.9763 150.153 30.2411C150.842 30.4795 151.398 30.6384 151.822 30.7178C152.378 30.8237 153.014 30.9032 153.729 30.9562C154.47 30.9826 155.212 30.9297 155.953 30.7973C156.695 30.6648 157.33 30.4397 157.86 30.1219C158.337 29.8306 158.933 29.4466 159.648 28.9699C160.363 28.4668 161.051 27.9106 161.713 27.3015C162.375 26.6924 162.865 26.0701 163.183 25.4345C164.083 26.0436 164.64 26.9043 164.851 28.0166C165.09 29.1288 164.997 30.3206 164.573 31.5917C164.15 32.8629 163.408 34.0679 162.349 35.2066C161.316 36.3189 159.965 37.2326 158.297 37.9476C156.629 38.6362 154.656 38.9539 152.378 38.901C151.319 38.8745 150.101 38.6759 148.723 38.3051C147.373 37.9344 146.009 37.3517 144.632 36.5573C143.255 35.7363 141.997 34.6637 140.858 33.3396C139.746 31.989 138.898 30.3206 138.316 28.3344C137.733 26.3482 137.574 24.0044 137.839 21.3032C138.077 18.7344 138.713 16.5231 139.746 14.6693C140.805 12.8155 142.089 11.3059 143.599 10.1407C145.135 8.94898 146.75 8.06181 148.445 7.47919C150.167 6.87009 151.809 6.55229 153.371 6.52581C154.934 6.47284 156.284 6.71119 157.423 7.24084C158.588 7.7705 159.528 8.45905 160.243 9.3065C160.958 10.1275 161.435 11.0146 161.673 11.968C161.938 12.8949 161.938 13.7424 161.673 14.5104Z" fill="#030911"/>
<path d="M194.193 34.5313C194.219 35.008 194.285 35.4979 194.391 36.0011C194.524 36.5043 194.683 36.9545 194.868 37.3517C194.762 37.4577 194.484 37.6431 194.034 37.9079C193.584 38.1727 193.041 38.4111 192.405 38.6229C191.769 38.8348 191.094 38.9142 190.379 38.8613C189.346 38.7818 188.486 38.3581 187.797 37.5901C187.135 36.7956 186.804 35.7893 186.804 34.5711C186.777 34.3062 186.764 34.0282 186.764 33.7368C186.764 33.4455 186.764 33.0748 186.764 32.6246C186.791 31.4593 186.552 30.453 186.049 29.6055C185.546 28.7316 184.871 28.0695 184.023 27.6193C183.176 27.1426 182.249 26.9043 181.243 26.9043C179.786 26.9043 178.528 27.3413 177.469 28.2152C176.436 29.0891 175.867 30.3603 175.761 32.0287C175.761 32.2671 175.774 32.7173 175.8 33.3793C175.853 34.0414 175.92 34.7035 175.999 35.3655C176.078 36.0276 176.158 36.5043 176.237 36.7956C175.946 37.1134 175.509 37.4444 174.926 37.7887C174.344 38.1065 173.735 38.3581 173.099 38.5435C172.464 38.7288 171.907 38.7818 171.431 38.7024C170.716 38.5699 170.027 38.0933 169.365 37.2723C168.703 36.4513 168.359 35.4317 168.332 34.2135C168.332 33.9752 168.319 33.3131 168.293 32.2273C168.293 31.1151 168.279 29.7379 168.253 28.096C168.253 26.4541 168.24 24.693 168.213 22.8127C168.213 20.9059 168.2 19.0257 168.173 17.1719C168.173 15.3181 168.16 13.6232 168.134 12.0872C168.134 10.5512 168.134 9.31974 168.134 8.39285C168.134 7.46595 168.134 7.0025 168.134 7.0025C168.425 6.94954 168.928 6.93629 169.643 6.96278C170.385 6.98926 171.166 7.10843 171.987 7.32029C172.887 7.53215 173.708 7.88967 174.45 8.39285C175.191 8.89602 175.615 9.62429 175.721 10.5777C175.774 11.0279 175.814 11.5178 175.84 12.0475C175.867 12.5771 175.88 13.0406 175.88 13.4378C175.88 13.8086 175.88 13.9939 175.88 13.9939C175.88 15.0268 176.118 15.9934 176.595 16.8938C177.072 17.7677 177.72 18.4563 178.541 18.9595C179.389 19.4626 180.302 19.701 181.282 19.6745C182.686 19.6215 183.772 19.1713 184.54 18.3239C185.308 17.4764 185.877 16.245 186.248 14.6295C186.354 14.1793 186.433 13.5437 186.486 12.7228C186.539 11.8753 186.566 11.0146 186.566 10.1407C186.592 9.26678 186.605 8.52526 186.605 7.91616C186.605 7.30705 186.605 7.0025 186.605 7.0025C186.897 6.94954 187.373 6.93629 188.035 6.96278C188.697 6.98926 189.399 7.08195 190.141 7.24084C191.068 7.42622 191.942 7.78374 192.763 8.3134C193.61 8.81657 194.087 9.57133 194.193 10.5777C194.246 11.0808 194.285 11.8886 194.312 13.0008C194.338 14.1131 194.338 15.4108 194.312 16.8938C194.312 18.3504 194.299 19.9128 194.272 21.5813C194.246 23.2232 194.219 24.8651 194.193 26.5071C194.166 28.1225 194.153 29.632 194.153 31.0356C194.153 32.4127 194.166 33.5779 194.193 34.5313Z" fill="#030911"/>
<path d="M215.771 31.1151C216.142 31.0621 216.605 30.9959 217.161 30.9164C217.744 30.837 218.287 30.7443 218.79 30.6384C219.32 30.5059 219.677 30.3603 219.863 30.2014C220.207 30.4927 220.432 31.0886 220.538 31.989C220.67 32.8629 220.631 33.7766 220.419 34.7299C220.26 35.5509 219.982 36.3189 219.584 37.0339C219.187 37.749 218.618 38.1859 217.876 38.3448C217.241 38.4773 216.512 38.5567 215.691 38.5832C214.871 38.6097 214.036 38.6097 213.189 38.5832C212.341 38.5567 211.56 38.5302 210.845 38.5037C210.157 38.4773 209.627 38.464 209.256 38.464C208.885 38.464 208.303 38.464 207.508 38.464C206.74 38.4905 206.065 38.517 205.482 38.5435C204.794 38.6229 204.039 38.6759 203.218 38.7024C202.397 38.7288 201.642 38.7024 200.954 38.6229C200.265 38.5435 199.762 38.4111 199.444 38.2257C199.63 37.8549 199.789 37.2988 199.921 36.5573C200.053 35.7893 200.159 34.9551 200.239 34.0546C200.318 33.1542 200.345 32.2935 200.318 31.4726L200.239 24.2031V20.8265C200.239 19.8731 200.226 19.0786 200.199 18.4431C200.199 17.8075 200.199 17.4632 200.199 17.4102C200.199 16.5363 200.159 15.5962 200.08 14.5898C200 13.5835 199.908 12.6301 199.802 11.7297C199.696 10.8028 199.603 10.048 199.524 9.4654C199.418 9.01519 199.338 8.57822 199.285 8.1545C199.232 7.70429 199.219 7.30705 199.246 6.96278C199.431 7.04222 199.934 7.12167 200.755 7.20112C201.603 7.25409 202.583 7.30705 203.695 7.36002C203.774 7.36002 204.158 7.37326 204.847 7.39974C205.535 7.39974 206.383 7.41298 207.389 7.43946C208.422 7.46595 209.481 7.49243 210.567 7.51891C211.679 7.51891 212.686 7.51891 213.586 7.51891C214.487 7.51891 215.149 7.50567 215.572 7.47919C216.658 7.42622 217.572 7.34678 218.313 7.24084C219.081 7.10843 219.598 6.93629 219.863 6.72443C220.18 6.98926 220.472 7.49243 220.736 8.23395C221.028 8.94898 221.187 9.70374 221.213 10.4982C221.213 11.2662 221.028 11.9945 220.657 12.6831C220.313 13.3451 219.677 13.7953 218.75 14.0337C218.406 14.1131 217.863 14.1793 217.122 14.2323C216.407 14.2853 215.705 14.325 215.016 14.3515C214.354 14.3515 213.877 14.3382 213.586 14.3117C212.765 14.2323 211.918 14.325 211.044 14.5898C210.17 14.8282 209.428 15.1592 208.819 15.5829C208.21 15.9802 207.892 16.4171 207.866 16.8938C207.839 17.344 208.025 17.7148 208.422 18.0061C208.819 18.2974 209.336 18.5357 209.971 18.7211C210.633 18.88 211.335 18.9859 212.077 19.0389C212.818 19.0919 213.52 19.1051 214.182 19.0786C214.712 19.0257 215.321 18.933 216.009 18.8006C216.698 18.6682 217.122 18.5357 217.28 18.4033C217.625 18.6946 217.863 19.2375 217.995 20.032C218.154 20.8265 218.154 21.6475 217.995 22.4949C217.863 23.1835 217.598 23.8191 217.201 24.4017C216.804 24.9843 216.248 25.3815 215.533 25.5934C214.976 25.7523 214.5 25.8582 214.103 25.9112C213.705 25.9377 213.507 25.9509 213.507 25.9509C211.944 25.9509 210.62 26.229 209.534 26.7851C208.475 27.3148 207.892 27.9504 207.786 28.6919C207.68 29.3275 207.813 29.9101 208.184 30.4397C208.581 30.9694 209.15 31.2607 209.892 31.3137C210.395 31.3402 211.031 31.3534 211.799 31.3534C212.593 31.3269 213.361 31.3004 214.103 31.2739C214.871 31.221 215.427 31.168 215.771 31.1151Z" fill="#030911"/>
<path d="M250.522 10.5777C250.575 11.0279 250.602 11.7959 250.602 12.8817C250.628 13.941 250.641 15.2122 250.641 16.6952C250.641 18.1782 250.641 19.7407 250.641 21.3826C250.641 23.0246 250.628 24.6533 250.602 26.2687C250.602 27.8842 250.588 29.3539 250.562 30.6781C250.562 32.0022 250.562 33.088 250.562 33.9355C250.562 34.7564 250.575 35.2199 250.602 35.3258C250.655 35.5377 250.615 35.8819 250.482 36.3586C250.35 36.8088 250.138 37.2458 249.847 37.6695C249.555 38.0668 249.185 38.3051 248.735 38.3846C248.311 38.4905 247.715 38.4905 246.947 38.3846C246.205 38.3051 245.451 38.1065 244.683 37.7887C243.941 37.4444 243.345 36.9545 242.895 36.3189C242.63 35.9482 242.22 35.4185 241.664 34.7299C241.134 34.0149 240.538 33.2469 239.876 32.4259C239.24 31.5785 238.605 30.7708 237.969 30.0028C237.36 29.2083 236.844 28.533 236.42 27.9768C235.996 27.3942 235.731 27.0367 235.626 26.9043C235.387 26.5335 234.99 26.1628 234.434 25.792C233.904 25.3948 233.48 25.2491 233.163 25.3551C232.845 25.461 232.607 25.792 232.448 26.3482C232.289 26.8778 232.183 27.4472 232.13 28.0563C232.077 28.4535 232.05 29.0626 232.05 29.8836C232.05 30.6781 232.05 31.4991 232.05 32.3465C232.077 33.1939 232.077 33.8825 232.05 34.4122C232.024 35.3391 232.315 36.2262 232.924 37.0737C232.712 37.2061 232.289 37.4179 231.653 37.7093C231.018 37.9741 230.342 38.2124 229.627 38.4243C228.912 38.6362 228.303 38.7288 227.8 38.7024C226.952 38.6494 226.198 38.2124 225.536 37.3915C224.9 36.5705 224.569 35.5509 224.543 34.3327C224.543 34.0944 224.529 33.4323 224.503 32.3465C224.503 31.2342 224.49 29.8571 224.463 28.2152C224.463 26.5733 224.463 24.7989 224.463 22.8922C224.463 20.9854 224.45 19.1051 224.423 17.2513C224.423 15.3711 224.41 13.6629 224.384 12.1269C224.384 10.5644 224.384 9.31974 224.384 8.39285C224.384 7.46595 224.384 7.0025 224.384 7.0025C225.999 6.94954 227.363 7.06871 228.475 7.36002C229.587 7.65133 230.514 8.18098 231.256 8.94898C231.574 9.24029 232.037 9.75671 232.646 10.4982C233.255 11.2397 233.917 12.0872 234.632 13.0406C235.374 13.9675 236.089 14.8944 236.778 15.8213C237.493 16.7482 238.115 17.5691 238.645 18.2842C239.174 18.9727 239.519 19.4229 239.677 19.6348C240.101 20.1644 240.525 20.5882 240.949 20.9059C241.399 21.1973 241.77 21.2899 242.061 21.184C242.696 20.9722 243.014 20.085 243.014 18.5225L242.935 7.0025C243.226 6.94954 243.729 6.93629 244.444 6.96278C245.186 6.98926 245.967 7.10843 246.788 7.32029C247.688 7.53215 248.509 7.88967 249.251 8.39285C249.992 8.89602 250.416 9.62429 250.522 10.5777Z" fill="#030911"/>
<path d="M82.1734 19.7458C82.9126 19.7478 83.6448 19.6032 84.3277 19.3203C85.0105 19.0374 85.6305 18.6218 86.1517 18.0977L91.5658 12.6871C91.994 12.2589 92.0333 11.5621 91.6255 11.1128C91.5231 10.9999 91.3989 10.909 91.2603 10.8456C91.1218 10.7822 90.9717 10.7476 90.8194 10.7439C90.667 10.7403 90.5155 10.7676 90.3741 10.8242C90.2326 10.8809 90.1041 10.9657 89.9964 11.0735L85.1708 15.8955C85.0088 16.0573 84.7892 16.1482 84.5602 16.1482C84.3312 16.1482 84.1115 16.0573 83.9495 15.8955C83.6127 15.5594 83.631 14.9913 83.9671 14.6552L88.7715 9.85072C88.8792 9.74302 88.9639 9.61457 89.0205 9.47316C89.0771 9.33175 89.1044 9.18033 89.1007 9.02807C89.097 8.8758 89.0624 8.72588 88.9991 8.58737C88.9357 8.44886 88.8449 8.32465 88.7322 8.22228C88.5286 8.03761 88.2631 7.936 87.9883 7.93752C87.6767 7.93773 87.378 8.06166 87.1579 8.28205L82.3576 13.0816C82.1956 13.2434 81.976 13.3343 81.747 13.3343C81.518 13.3343 81.2983 13.2434 81.1363 13.0816C80.8002 12.7455 80.8178 12.1774 81.1539 11.8413L85.9583 7.03822C86.066 6.93052 86.1507 6.80207 86.2073 6.66066C86.2639 6.51925 86.2912 6.36783 86.2875 6.21557C86.2838 6.0633 86.2492 5.91338 86.1859 5.77487C86.1225 5.63636 86.0317 5.51215 85.919 5.40978C85.7154 5.22511 85.4499 5.1235 85.1751 5.12502C84.8636 5.12539 84.5649 5.24929 84.3447 5.46955L78.9341 10.8801C78.4099 11.4014 77.9943 12.0215 77.7114 12.7045C77.4285 13.3875 77.2839 14.1198 77.286 14.8591V15.4378C77.2861 15.5857 77.257 15.7322 77.2004 15.8689C77.1439 16.0056 77.0609 16.1298 76.9562 16.2344L74.4524 18.7389C74.4263 18.7651 74.3953 18.7858 74.3611 18.8C74.327 18.8141 74.2904 18.8214 74.2534 18.8214C74.2164 18.8214 74.1798 18.8141 74.1457 18.8C74.1116 18.7858 74.0805 18.7651 74.0544 18.7389L61.8707 6.55447C61.6604 6.34395 61.3753 6.22531 61.0777 6.22452C60.7802 6.22373 60.4944 6.34085 60.283 6.55025C59.2178 7.60564 58.6489 9.09556 58.6489 10.8583C58.6419 13.7692 60.1719 17.1161 62.642 19.5827L68.6502 25.5909C69.5041 26.4431 70.6613 26.9218 71.8677 26.9219C72.2523 26.922 72.6354 26.8729 73.0075 26.7756C73.1009 26.7512 73.1971 26.7386 73.2936 26.7384C73.5761 26.7384 73.8481 26.8452 74.0551 27.0372L74.856 27.7769C75.0625 27.9879 75.1786 28.2712 75.1794 28.5665V28.956C75.1774 29.8416 75.5254 30.692 76.1476 31.322L82.4793 37.7606L82.4856 37.7676C83.1883 38.4703 84.1414 38.865 85.1352 38.8649C86.129 38.8648 87.082 38.47 87.7847 37.7672C88.4874 37.0645 88.8821 36.1114 88.882 35.1176C88.8819 34.1238 88.4871 33.1708 87.7843 32.4681L78.2936 22.9774C78.2674 22.9512 78.2467 22.9202 78.2325 22.8861C78.2184 22.8519 78.2111 22.8153 78.2111 22.7784C78.2111 22.7414 78.2184 22.7048 78.2325 22.6707C78.2467 22.6365 78.2674 22.6055 78.2936 22.5794L80.7974 20.0756C80.9019 19.971 81.026 19.8881 81.1625 19.8315C81.2991 19.7749 81.4455 19.7458 81.5933 19.7458H82.1734Z" fill="#FF8303"/>
<path d="M71.8676 29.1719C70.0665 29.1681 68.3394 28.4544 67.0611 27.1855L66.0865 26.211C65.9811 26.1058 65.8382 26.0467 65.6893 26.0467C65.5403 26.0467 65.3975 26.1058 65.292 26.211L59.3154 32.1566C58.2502 33.2219 57.8698 34.7898 58.3972 36.3254C58.4267 36.412 58.4617 36.4965 58.5019 36.5786C59.2114 38.0312 60.5881 38.875 62.0942 38.875C62.6121 38.8762 63.1252 38.7747 63.6036 38.5763C64.0821 38.3779 64.5164 38.0865 64.8814 37.719L72.852 29.7104C72.8856 29.6762 72.9112 29.6351 72.9273 29.5899C72.9433 29.5447 72.9493 29.4966 72.9448 29.4489V29.4306C72.9417 29.3868 72.9297 29.344 72.9096 29.3049C72.8895 29.2658 72.8617 29.2312 72.8279 29.2031C72.7941 29.1751 72.7549 29.1542 72.7128 29.1417C72.6706 29.1292 72.6264 29.1253 72.5827 29.1304C72.3452 29.1567 72.1066 29.1705 71.8676 29.1719V29.1719Z" fill="#030911"/>
<path d="M260.479 38.7421C259.525 38.7421 258.757 38.5302 258.175 38.1065C257.592 37.6563 257.182 37.1134 256.943 36.4778C256.705 35.8422 256.612 35.2331 256.665 34.6505C256.745 33.8825 257.129 33.1807 257.817 32.5451C258.506 31.9095 259.446 31.5917 260.638 31.5917C261.459 31.5917 262.068 31.6579 262.465 31.7903C262.889 31.9227 263.22 32.2008 263.458 32.6245C263.696 33.0483 263.961 33.6838 264.253 34.5313C264.464 35.1404 264.438 35.776 264.173 36.4381C263.935 37.0736 263.498 37.6165 262.862 38.0667C262.227 38.5169 261.432 38.7421 260.479 38.7421Z" fill="#FF8303"/>
</svg>
